<svg width="200" height="200" viewBox="0 0 200 200" fill="none" xmlns="http://www.w3.org/2000/svg">
<path d="M195.832 134.826C190.144 125.38 181.446 119.742 172.566 119.742C169.55 119.742 166.599 120.381 163.783 121.65L128.559 138.023L132.201 144.369C132.394 144.703 132.275 145.131 131.944 145.324C114.68 155.262 99.8946 161.374 86.5975 164.017C86.266 164.017 85.9785 163.78 85.9126 163.453C85.8753 163.267 85.9126 163.084 86.0158 162.926C86.119 162.768 86.2748 162.665 86.4614 162.628C98.6871 160.184 112.309 154.709 128.098 145.888L130.64 144.47L126.961 138.056C121.81 129.083 116.133 125.852 107.956 127.263L76.4289 132.965C70.7825 133.371 65.8035 131.066 61.3954 129.011C56.7984 126.87 52.4143 124.86 47.3651 125.303L40.6628 125.898V187.303L54.7589 186.05C55.5558 185.977 56.3835 185.942 57.2155 185.942C64.0605 185.942 70.7057 188.412 77.1577 190.813C83.4363 193.145 89.3658 195.344 95.3107 195.344C95.9891 195.344 96.6652 195.314 97.3151 195.257C110.63 194.095 144.716 172.737 180.807 150.121C185.193 147.37 189.593 144.615 194.008 141.86C196.442 140.343 197.259 137.186 195.832 134.826Z" fill="#FE5501"/>
<path d="M35.2141 196.482H8.84396C5.79028 196.482 3.31397 194.005 3.31397 190.952V120.067C3.31397 117.014 5.79028 114.537 8.84396 114.537H35.2141C38.2677 114.537 40.744 117.014 40.744 120.067V190.949C40.744 194.005 38.2677 196.482 35.2141 196.482Z" fill="#ABE3FF"/>
<path d="M160.026 12.4662C147.796 0.236119 127.966 0.236119 115.736 12.4662L114.061 14.1412L112.386 12.4662C100.156 0.236119 80.3255 0.236119 68.0954 12.4662C55.8654 24.6963 55.8654 44.5266 68.0976 56.7566L91.9168 80.5758L114.061 102.722L136.205 80.578L160.024 56.7588C172.256 44.5265 172.256 24.6985 160.026 12.4662Z" fill="#FE5501"/>
<path d="M114.061 104.917C113.499 104.917 112.937 104.702 112.509 104.274L66.5456 58.3109C53.4791 45.2444 53.4791 23.9828 66.5456 10.9163C72.8725 4.58503 81.2893 1.09888 90.2396 1.09888C99.1899 1.09888 107.609 4.58503 113.938 10.9163L114.061 11.0393L114.184 10.9163C120.513 4.58503 128.93 1.09888 137.882 1.09888C146.833 1.09888 155.247 4.58503 161.578 10.9163C174.645 23.9828 174.645 45.2444 161.578 58.3109L115.613 104.274C115.185 104.702 114.623 104.917 114.061 104.917ZM90.2396 5.4895C82.4616 5.4895 75.1468 8.51903 69.6475 14.0205C58.2934 25.3746 58.2934 43.8504 69.6475 55.2067L114.059 99.6179L158.47 55.2067C169.824 43.8504 169.824 25.3746 158.47 14.0205C152.973 8.51903 145.66 5.4895 137.882 5.4895C130.102 5.4895 122.789 8.51903 117.288 14.0205L115.613 15.6955C114.755 16.5539 113.367 16.5539 112.509 15.6955L110.834 14.0205C105.332 8.51903 98.0198 5.4895 90.2396 5.4895Z" fill="white"/>
<path d="M95.5764 198.677C89.1287 198.677 82.747 196.304 76.5518 194.003C69.7222 191.465 62.6708 188.844 55.6502 189.463L38.5487 190.98V124.381L47.8173 123.558C53.6349 123.051 58.5019 125.31 63.2087 127.503C67.6542 129.573 71.8604 131.551 76.6923 131.134L107.567 125.531C118.599 123.657 124.671 130.062 128.352 135.895L162.138 120.19C174.803 114.504 189.015 120.212 197.551 134.381C199.77 138.064 198.534 142.956 194.8 145.287C190.425 148.016 186.065 150.747 181.753 153.451C144.141 177.016 111.661 197.366 97.7827 198.58C97.0472 198.646 96.3118 198.677 95.5764 198.677ZM57.8126 184.978C64.8683 184.978 71.5728 187.47 78.0797 189.887C84.8193 192.394 91.1857 194.756 97.3963 194.207C110.223 193.086 143.836 172.026 179.42 149.728C183.736 147.026 188.096 144.29 192.473 141.559C194.185 140.492 194.776 138.286 193.788 136.644C186.454 124.473 174.463 119.459 163.963 124.183L126.583 141.559L125.582 139.812C122.245 133.999 117.593 128.273 108.329 129.856L77.2631 135.483C71.0613 135.994 66.1241 133.7 61.3558 131.481C56.9828 129.441 52.8402 127.512 48.2081 127.931L42.9416 128.398V186.181L55.2638 185.088C56.1178 185.013 56.9674 184.978 57.8126 184.978Z" fill="white"/>
<path d="M86.9159 166.268C85.8907 166.268 84.973 165.548 84.7667 164.503C84.5296 163.313 85.3001 162.158 86.49 161.919C98.7179 159.475 112.467 153.882 128.469 144.841L125.584 139.812C124.98 138.76 125.345 137.417 126.394 136.815C127.446 136.216 128.789 136.578 129.391 137.625L133.371 144.565C133.972 145.616 133.61 146.958 132.563 147.559C115.323 157.484 100.536 163.589 87.3483 166.224C87.2034 166.254 87.0586 166.268 86.9159 166.268Z" fill="#FE5501"/>
<path d="M35.2141 198.677H8.84397C4.58286 198.677 1.11646 195.211 1.11646 190.949V120.067C1.11646 115.808 4.58286 112.34 8.84397 112.34H35.2141C39.4752 112.34 42.9416 115.806 42.9416 120.067V190.949C42.9394 195.211 39.473 198.677 35.2141 198.677ZM8.84397 116.733C7.00429 116.733 5.50709 118.23 5.50709 120.069V190.949C5.50709 192.789 7.00429 194.286 8.84397 194.286H35.2141C37.0537 194.286 38.5509 192.789 38.5509 190.949V120.067C38.5509 118.228 37.0537 116.73 35.2141 116.73L8.84397 116.733Z" fill="white"/>
</svg>
