<svg width="10" height="18" viewBox="0 0 10 18" fill="none" xmlns="http://www.w3.org/2000/svg">
<path d="M2.64234 10.0191C2.57628 10.0191 1.12299 10.0191 0.462409 10.0191C0.110098 10.0191 0 9.88579 0 9.55257C0 8.66395 0 7.75313 0 6.86452C0 6.50907 0.132117 6.398 0.462409 6.398H2.64234C2.64234 6.33135 2.64234 5.04287 2.64234 4.44305C2.64234 3.55444 2.79647 2.71026 3.23686 1.93273C3.69927 1.13298 4.35986 0.599812 5.1966 0.288798C5.74709 0.0888609 6.29757 0 6.8921 0H9.05001C9.35828 0 9.4904 0.133292 9.4904 0.444305V2.97685C9.4904 3.28786 9.35828 3.42115 9.05001 3.42115C8.45548 3.42115 7.86096 3.42115 7.26643 3.44337C6.6719 3.44337 6.36363 3.73217 6.36363 4.35419C6.34161 5.02065 6.36363 5.66489 6.36363 6.35357H8.91789C9.2702 6.35357 9.40232 6.48686 9.40232 6.8423V9.53035C9.40232 9.88579 9.29222 9.99687 8.91789 9.99687C8.12519 9.99687 6.42969 9.99687 6.36363 9.99687V17.239C6.36363 17.6167 6.25353 17.75 5.85718 17.75C4.93237 17.75 4.02957 17.75 3.10475 17.75C2.77446 17.75 2.64234 17.6167 2.64234 17.2835C2.64234 14.9509 2.64234 10.0857 2.64234 10.0191V10.0191Z" fill="#627785"/>
</svg>
