<svg width="1920" height="711" viewBox="0 0 1920 711" fill="none" xmlns="http://www.w3.org/2000/svg">
<mask id="mask0_509_2067" style="mask-type:alpha" maskUnits="userSpaceOnUse" x="0" y="0" width="1920" height="714">
<rect width="1920" height="714" fill="#D9D9D9"/>
</mask>
<g mask="url(#mask0_509_2067)">
<path fill-rule="evenodd" clip-rule="evenodd" d="M73.0757 257.655C24.8312 141.507 0 17.0215 0 -108.695H960H1920C1920 17.0215 1895.17 141.507 1846.92 257.655C1798.68 373.802 1727.97 479.336 1638.82 568.231C1549.68 657.126 1443.85 727.642 1327.38 775.752C1210.9 823.861 1086.07 848.623 960 848.623C833.931 848.623 709.096 823.861 592.624 775.752C476.151 727.642 370.322 657.126 281.177 568.231C192.033 479.336 121.32 373.802 73.0757 257.655Z" fill="#EDF3F5"/>
</g>
<path d="M235 714C235 678.806 241.984 643.956 255.553 611.441C269.121 578.926 289.009 549.381 314.081 524.495C339.153 499.609 368.918 479.869 401.675 466.4C434.433 452.932 469.543 446 505 446V714H235Z" fill="#0D5C91" fill-opacity="0.05"/>
</svg>
