<svg width="1920" height="311" viewBox="0 0 1920 311" fill="none" xmlns="http://www.w3.org/2000/svg">
<path d="M1920 0C1920 40.8411 1895.17 81.2823 1846.92 119.015C1798.68 156.747 1727.97 191.031 1638.82 219.91C1549.68 248.789 1443.85 271.697 1327.38 287.327C1210.9 302.956 1086.07 311 960 311V0H1920Z" fill="#FF9D6C"/>
<path d="M2.57492e-05 0C2.57492e-05 40.8411 24.8312 81.2823 73.0757 119.015C121.32 156.747 192.033 191.031 281.178 219.91C370.322 248.789 476.151 271.697 592.624 287.327C709.097 302.956 833.931 311 960 311V0H2.57492e-05Z" fill="#FF9D6C"/>
<path d="M235 267.266C235 255.832 241.984 244.511 255.553 233.948C269.121 223.385 289.009 213.787 314.081 205.702C339.153 197.617 368.918 191.204 401.675 186.829C434.433 182.454 469.543 180.202 505 180.202V267.266H235Z" fill="#FF9D6C" fill-opacity="0.05"/>
</svg>
