<svg width="291" height="181" viewBox="0 0 291 181" fill="none" xmlns="http://www.w3.org/2000/svg">
<path fill-rule="evenodd" clip-rule="evenodd" d="M106.261 15.0016C106.359 14.046 105.97 9.84402 105.193 8.31574C100.464 -0.99123 80.3109 -1.67793 72.565 2.29762C70.3326 3.4431 66.6431 6.5011 66.6431 6.5011C66.6431 6.5011 64.9914 5.35417 63.8254 4.0173C62.661 2.67896 60.4271 1.15069 58 0.767891C55.5716 0.386553 51.2018 0.00521592 49.0659 0.386553C46.9285 0.767891 43.239 1.72343 41.2977 3.2517C39.3549 4.78143 37.4136 7.26378 36.6368 8.88848C35.0341 12.2358 31.4635 22.83 35.0817 25.7944L37.4136 27.7055C39.7426 29.6166 37.3319 20.6807 40.2283 17.199C41.1031 16.147 42.3656 15.0965 43.7247 14.8102C45.0838 14.5238 47.2211 14.2374 48.7748 14.6188C50.3284 15.0016 59.4571 17.8667 59.4571 17.8667C59.4571 17.8667 58.3877 22.8343 58.3877 23.7884C58.3877 24.7454 59.2611 27.1328 59.8448 27.8969C60.4271 28.6611 62.9521 31.0499 62.9521 31.0499C62.9521 31.0499 63.3412 32.004 62.4664 32.5782C61.593 33.1494 57.4163 32.7681 55.9607 33.5322C54.5036 34.2964 43.7366 50.0072 41.7908 56.3278C39.8436 62.6469 39.4544 68.2004 39.649 72.6055C39.8436 77.0091 39.0638 91.5642 35.5599 102.288C32.0561 113.013 28.1631 129.483 28.1631 134.845C28.1631 140.207 28.7468 165.677 30.1088 168.742C31.4724 171.806 40.2327 179.275 47.6311 180.806C55.0294 182.339 79.5594 181.19 87.3469 180.423C95.1344 179.658 116.16 177.742 123.168 175.061C130.179 172.38 138.743 167.784 143.027 163.954C147.31 160.123 152.762 147.101 151.982 142.888C148.185 122.342 123.153 126.072 107.204 133.311C102.144 135.611 90.0724 141.739 85.7888 141.739C81.5066 141.739 78.0013 144.42 77.6121 136.377C77.223 128.333 76.6392 109.949 77.6121 107.651C78.5865 105.352 81.7012 98.6504 81.7012 98.6504C81.7012 98.6504 83.843 102.48 86.5671 104.587C89.2941 106.694 94.16 107.842 96.6924 106.311C99.2219 104.778 111.682 84.2867 112.071 82.1813C112.461 80.073 113.824 74.3281 114.213 72.4141C114.602 70.4986 114.602 66.0935 114.602 62.0727C114.602 58.0503 113.629 53.8381 111.293 52.6897C108.957 51.5384 102.531 50.9657 101.947 53.6452C101.364 56.3278 104.478 62.8383 105.258 68.009C106.037 73.1797 103.116 79.4988 100.585 82.7555C98.0545 86.0107 94.7452 86.7778 94.7452 86.7778C94.7452 86.7778 94.16 79.6902 92.0197 76.2435C89.8763 72.7969 85.9833 68.009 84.2322 65.7107C82.4795 63.4125 81.1175 61.6899 81.1175 58.6245C81.1175 55.5607 82.8686 49.6244 85.0105 47.9003C87.1508 46.1763 92.4088 45.0279 92.4088 45.0279C92.4088 45.0279 97.6653 47.3261 99.2219 45.0279C100.78 42.7311 102.337 40.4314 102.727 38.1346C103.116 35.8349 104.089 34.6865 104.089 34.6865C104.089 34.6865 106.231 34.6865 106.426 33.7295C106.62 32.7725 106.815 30.8556 106.231 28.9416C105.647 27.0276 105.064 26.262 105.064 23.7723C105.064 21.2812 106.261 15.0016 106.261 15.0016Z" fill="#FE5501"/>
<path fill-rule="evenodd" clip-rule="evenodd" d="M167.363 12.2811C167.363 12.2811 162.884 11.1312 158.601 11.1312C154.319 11.1312 151.009 12.4725 148.866 14.3865C146.726 16.3019 146.142 18.2174 144.195 20.8984C142.247 23.5795 141.275 26.262 137.576 27.0276C133.876 27.7932 128.816 28.3674 127.841 28.5588C126.869 28.7502 124.338 29.1344 124.143 31.2398C123.948 33.3452 123.558 41.964 126.674 44.2623C129.789 46.5605 134.071 47.5175 137.187 47.5175C140.303 47.5175 148.089 48.0932 149.064 50.1986C150.035 52.304 151.982 56.1349 151.398 58.6245C150.815 61.1142 150.23 62.2626 148.673 66.6692C147.116 71.0728 147.311 77.0091 147.311 77.0091C147.311 77.0091 142.247 66.8591 140.303 65.1365C138.354 63.4124 137.38 61.8798 133.487 61.8798C129.594 61.8798 126.478 61.1142 123.558 59.7744C120.639 58.4346 117.328 57.0933 113.824 55.7521C110.321 54.4123 102.922 53.4553 102.337 56.1349C101.753 58.8174 100.78 63.0296 102.728 63.9881C104.673 64.9451 109.93 64.9451 113.63 64.9451C117.328 64.9451 124.532 67.8176 125.7 68.7745C126.869 69.733 134.909 74.9884 137.142 80.3374C139.376 85.6878 140.496 91.3728 144.973 96.9263C149.453 102.48 159.575 115.311 160.744 116.459C161.911 117.609 163.079 120.099 164.248 124.887C165.417 129.673 167.363 143.463 166.973 145.377C166.583 147.294 165.999 153.613 164.637 157.442C163.274 161.273 161.911 168.932 161.911 168.932L157.822 173.911C157.822 173.911 156.071 176.02 159.964 177.166C163.963 178.347 176.401 179.269 177.579 173.089C177.877 171.522 179.668 148.045 179.866 144.913C180.066 141.782 181.458 112.63 181.458 112.63C181.458 112.63 182.848 136.696 182.848 138.457C182.848 140.219 183.844 142.761 186.033 146.282C188.221 149.805 201.945 163.697 201.945 163.697C201.945 163.697 196.972 162.914 195.38 162.718C193.789 162.524 188.022 160.566 186.033 162.914C184.043 165.263 181.259 168.783 181.259 171.522C181.259 181.779 248.066 184.644 252.051 175.827C253.607 172.38 255.555 164.337 255.555 164.337C307.867 147.516 253.927 108.153 260.616 114.162C267.306 120.17 274.904 136.983 268.795 145.569C266.068 149.399 257.892 153.613 257.892 153.613C257.892 153.613 259.838 148.251 256.333 134.08C246.037 92.435 223.911 97.315 202.6 69.733C195.203 60.1572 192.867 53.6452 191.698 48.6659C190.53 43.6881 182.743 35.2621 182.743 32.5796C182.743 29.8986 185.858 25.3035 186.247 23.0053C186.636 20.707 176.514 16.1105 176.514 16.1105L167.363 12.2811Z" fill="#FE5501"/>
<mask id="mask0_311_365" style="mask-type:luminance" maskUnits="userSpaceOnUse" x="0" y="175" width="291" height="15">
<path d="M0 175.032H290.628V189.076H0V175.032Z" fill="white"/>
</mask>
<g mask="url(#mask0_311_365)">
<path fill-rule="evenodd" clip-rule="evenodd" d="M145.314 189.19C225.35 189.19 290.628 186.031 290.628 182.157C290.628 178.287 225.35 175.128 145.314 175.128C65.278 175.128 0 178.287 0 182.157C0 186.031 65.278 189.19 145.314 189.19Z" fill="#FE5501"/>
</g>
</svg>
