<svg width="19" height="18" viewBox="0 0 19 18" fill="none" xmlns="http://www.w3.org/2000/svg">
<path fill-rule="evenodd" clip-rule="evenodd" d="M14.328 0H5.35412C2.84144 0 0.867188 1.89695 0.867188 4.31126V12.9338C0.867188 15.3481 2.84144 17.245 5.35412 17.245H14.328C16.8407 17.245 18.8149 15.3481 18.8149 12.9338V4.31126C18.8149 1.89695 16.8407 0 14.328 0ZM17.0201 12.9338C17.0201 14.3996 15.8535 15.5205 14.328 15.5205H5.35412C3.82856 15.5205 2.66196 14.3996 2.66196 12.9338V4.31126C2.66196 2.84543 3.82856 1.7245 5.35412 1.7245H14.328C15.8535 1.7245 17.0201 2.84543 17.0201 4.31126V12.9338ZM9.84105 4.31126C7.32837 4.31126 5.35412 6.20821 5.35412 8.62252C5.35412 11.0368 7.32837 12.9338 9.84105 12.9338C12.3537 12.9338 14.328 11.0368 14.328 8.62252C14.328 6.20821 12.3537 4.31126 9.84105 4.31126ZM9.84105 11.2093C8.31549 11.2093 7.14889 10.0883 7.14889 8.62252C7.14889 7.15669 8.31549 6.03576 9.84105 6.03576C11.3666 6.03576 12.5332 7.15669 12.5332 8.62252C12.5332 10.0883 11.3666 11.2093 9.84105 11.2093ZM15.2254 4.31126C15.2254 4.78747 14.8236 5.17351 14.328 5.17351C13.8324 5.17351 13.4306 4.78747 13.4306 4.31126C13.4306 3.83505 13.8324 3.44901 14.328 3.44901C14.8236 3.44901 15.2254 3.83505 15.2254 4.31126Z" fill="#627785"/>
</svg>
