<svg width="19" height="18" viewBox="0 0 19 18" fill="none" xmlns="http://www.w3.org/2000/svg">
<path d="M15.7117 0H3.16501C2.54108 0 1.94271 0.250057 1.50153 0.69516C1.06035 1.14026 0.8125 1.74395 0.8125 2.37343L0.8125 15.0317C0.8125 15.6612 1.06035 16.2649 1.50153 16.71C1.94271 17.1551 2.54108 17.4051 3.16501 17.4051H15.7117C16.3356 17.4051 16.934 17.1551 17.3752 16.71C17.8164 16.2649 18.0642 15.6612 18.0642 15.0317V2.37343C18.0642 1.74395 17.8164 1.14026 17.3752 0.69516C16.934 0.250057 16.3356 0 15.7117 0V0ZM6.69377 13.7738C6.6939 13.822 6.68459 13.8699 6.66637 13.9145C6.64815 13.9591 6.62139 13.9997 6.58761 14.0339C6.55382 14.068 6.51369 14.0951 6.46951 14.1136C6.42532 14.1321 6.37795 14.1417 6.33011 14.1417H4.7804C4.73248 14.1418 4.685 14.1324 4.6407 14.1139C4.59641 14.0955 4.55616 14.0684 4.52227 14.0342C4.48839 14 4.46153 13.9594 4.44325 13.9147C4.42497 13.87 4.41563 13.8221 4.41576 13.7738V7.21917C4.41576 7.1216 4.45418 7.02803 4.52256 6.95904C4.59094 6.89005 4.68369 6.85129 4.7804 6.85129H6.33011C6.42665 6.85155 6.51915 6.89042 6.58732 6.95939C6.65549 7.02835 6.69377 7.12177 6.69377 7.21917V13.7738ZM5.55477 6.23024C5.26396 6.23024 4.97969 6.14324 4.7379 5.98025C4.49611 5.81725 4.30765 5.58557 4.19637 5.31452C4.08508 5.04347 4.05597 4.74521 4.1127 4.45746C4.16943 4.16971 4.30947 3.90539 4.51509 3.69794C4.72072 3.49048 4.98271 3.3492 5.26792 3.29196C5.55313 3.23473 5.84877 3.2641 6.11743 3.37638C6.3861 3.48865 6.61573 3.67878 6.77729 3.92272C6.93885 4.16667 7.02508 4.45346 7.02508 4.74685C7.02508 5.14027 6.87018 5.51758 6.59444 5.79577C6.3187 6.07396 5.94472 6.23024 5.55477 6.23024ZM14.7942 13.7995C14.7944 13.8439 14.7858 13.888 14.769 13.9291C14.7522 13.9702 14.7275 14.0075 14.6963 14.0389C14.6652 14.0704 14.6282 14.0953 14.5875 14.1122C14.5467 14.1292 14.5031 14.1378 14.459 14.1377H12.7927C12.7486 14.1378 12.7049 14.1292 12.6642 14.1122C12.6235 14.0953 12.5865 14.0704 12.5553 14.0389C12.5242 14.0075 12.4995 13.9702 12.4827 13.9291C12.4659 13.888 12.4573 13.8439 12.4574 13.7995V10.7289C12.4574 10.27 12.5907 8.71937 11.2684 8.71937C10.2441 8.71937 10.0353 9.78049 9.99415 10.2572V13.8034C9.99415 13.8923 9.95951 13.9776 9.8977 14.0409C9.83589 14.1042 9.75187 14.1404 9.66381 14.1417H8.05431C8.01033 14.1417 7.96678 14.1329 7.92617 14.1159C7.88555 14.0989 7.84866 14.074 7.81761 14.0425C7.78656 14.0111 7.76196 13.9738 7.74522 13.9328C7.72848 13.8918 7.71993 13.8478 7.72005 13.8034V7.19049C7.71993 7.14612 7.72848 7.10216 7.74522 7.06114C7.76196 7.02011 7.78656 6.98282 7.81761 6.9514C7.84866 6.91998 7.88555 6.89505 7.92617 6.87804C7.96678 6.86103 8.01033 6.85228 8.05431 6.85228H9.66381C9.75272 6.85228 9.83799 6.88791 9.90086 6.95134C9.96373 7.01477 9.99905 7.10079 9.99905 7.19049V7.76209C10.3794 7.18555 10.943 6.74251 12.1457 6.74251C14.8099 6.74251 14.7923 9.2524 14.7923 10.631L14.7942 13.7995Z" fill="#627785"/>
</svg>
