<svg width="250" height="250" viewBox="0 0 250 250" fill="none" xmlns="http://www.w3.org/2000/svg">
<path fill-rule="evenodd" clip-rule="evenodd" d="M86.3064 106.266C86.386 105.477 86.0701 102.01 85.4396 100.749C81.6008 93.0688 65.2428 92.5022 58.9554 95.7827C57.1434 96.7279 54.1486 99.2513 54.1486 99.2513C54.1486 99.2513 52.8079 98.3049 51.8615 97.2018C50.9163 96.0974 49.103 94.8363 47.133 94.5204C45.1618 94.2058 41.6148 93.8911 39.8811 94.2058C38.1462 94.5204 35.1514 95.3089 33.5757 96.57C31.9987 97.8323 30.4229 99.8807 29.7924 101.221C28.4915 103.983 25.5932 112.725 28.5301 115.172L30.4229 116.749C32.3134 118.326 30.3566 110.952 32.7076 108.079C33.4177 107.211 34.4425 106.344 35.5457 106.108C36.6488 105.871 38.3837 105.635 39.6448 105.95C40.9059 106.266 48.3157 108.63 48.3157 108.63C48.3157 108.63 47.4477 112.729 47.4477 113.516C47.4477 114.306 48.1566 116.276 48.6304 116.907C49.103 117.537 51.1526 119.508 51.1526 119.508C51.1526 119.508 51.4685 120.296 50.7583 120.769C50.0494 121.241 46.6592 120.926 45.4777 121.557C44.2949 122.187 35.5553 135.151 33.9759 140.367C32.3953 145.581 32.0795 150.164 32.2374 153.799C32.3953 157.433 31.7624 169.443 28.9183 178.293C26.0742 187.142 22.9142 200.733 22.9142 205.158C22.9142 209.582 23.3881 230.599 24.4936 233.128C25.6004 235.657 32.7112 241.82 38.7165 243.083C44.7217 244.348 64.6328 243.4 70.9539 242.767C77.275 242.136 94.342 240.555 100.03 238.343C105.721 236.13 112.672 232.338 116.149 229.178C119.626 226.016 124.051 215.271 123.418 211.795C120.337 194.84 100.018 197.918 87.072 203.892C82.9644 205.789 73.1662 210.846 69.6892 210.846C66.2133 210.846 63.368 213.058 63.0522 206.421C62.7363 199.784 62.2625 184.614 63.0522 182.717C63.8431 180.821 66.3713 175.291 66.3713 175.291C66.3713 175.291 68.1098 178.451 70.3209 180.189C72.5345 181.928 76.4841 182.875 78.5397 181.612C80.5929 180.347 90.707 163.438 91.0229 161.701C91.3387 159.961 92.4455 155.22 92.7614 153.641C93.0773 152.06 93.0773 148.425 93.0773 145.108C93.0773 141.788 92.2876 138.313 90.3911 137.365C88.4946 136.415 83.2791 135.942 82.8053 138.153C82.3314 140.367 84.8597 145.739 85.4926 150.006C86.1244 154.273 83.7541 159.487 81.6997 162.175C79.6453 164.861 76.9591 165.494 76.9591 165.494C76.9591 165.494 76.4841 159.645 74.7468 156.801C73.0071 153.957 69.8471 150.006 68.4257 148.11C67.003 146.213 65.8975 144.792 65.8975 142.262C65.8975 139.734 67.3189 134.836 69.0574 133.413C70.7947 131.99 75.0627 131.043 75.0627 131.043C75.0627 131.043 79.3294 132.939 80.5929 131.043C81.8576 129.147 83.1211 127.25 83.4382 125.354C83.7541 123.457 84.5438 122.509 84.5438 122.509C84.5438 122.509 86.2823 122.509 86.4402 121.72C86.5982 120.93 86.7561 119.348 86.2823 117.769C85.8085 116.189 85.3347 115.558 85.3347 113.503C85.3347 111.448 86.3064 106.266 86.3064 106.266Z" fill="#FE5501"/>
<path fill-rule="evenodd" clip-rule="evenodd" d="M135.903 104.021C135.903 104.021 132.268 103.072 128.791 103.072C125.315 103.072 122.629 104.179 120.889 105.758C119.152 107.339 118.678 108.919 117.097 111.132C115.517 113.344 114.727 115.557 111.725 116.189C108.722 116.821 104.614 117.295 103.823 117.453C103.033 117.611 100.979 117.928 100.821 119.665C100.663 121.402 100.346 128.514 102.875 130.411C105.404 132.307 108.88 133.097 111.409 133.097C113.938 133.097 120.258 133.572 121.049 135.309C121.838 137.047 123.418 140.208 122.944 142.262C122.471 144.317 121.996 145.264 120.732 148.9C119.469 152.534 119.627 157.433 119.627 157.433C119.627 157.433 115.517 149.057 113.938 147.636C112.357 146.213 111.566 144.948 108.406 144.948C105.246 144.948 102.716 144.317 100.346 143.211C97.977 142.106 95.2896 140.999 92.4455 139.892C89.6014 138.786 83.5962 137.997 83.1212 140.208C82.6473 142.421 81.8577 145.897 83.4382 146.688C85.0176 147.478 89.2844 147.478 92.2876 147.478C95.2896 147.478 101.137 149.848 102.085 150.638C103.033 151.429 109.559 155.765 111.373 160.179C113.186 164.594 114.095 169.285 117.729 173.868C121.365 178.451 129.581 189.038 130.53 189.986C131.478 190.935 132.426 192.989 133.374 196.94C134.323 200.89 135.903 212.269 135.587 213.848C135.27 215.43 134.796 220.644 133.69 223.804C132.583 226.965 131.478 233.285 131.478 233.285L128.159 237.394C128.159 237.394 126.737 239.134 129.897 240.08C133.143 241.054 143.239 241.815 144.195 236.715C144.437 235.423 145.891 216.049 146.052 213.466C146.214 210.882 147.344 186.826 147.344 186.826C147.344 186.826 148.472 206.685 148.472 208.138C148.472 209.592 149.28 211.69 151.057 214.595C152.833 217.502 163.973 228.965 163.973 228.965C163.973 228.965 159.937 228.319 158.644 228.158C157.353 227.997 152.672 226.382 151.057 228.319C149.442 230.258 147.182 233.162 147.182 235.423C147.182 243.886 201.409 246.25 204.644 238.974C205.908 236.13 207.488 229.493 207.488 229.493C249.951 215.613 206.167 183.132 211.597 188.091C217.027 193.048 223.194 206.922 218.235 214.007C216.022 217.167 209.386 220.644 209.386 220.644C209.386 220.644 210.965 216.219 208.12 204.526C199.763 170.162 181.803 174.189 164.505 151.429C158.501 143.527 156.604 138.153 155.656 134.045C154.708 129.937 148.387 122.984 148.387 120.771C148.387 118.558 150.915 114.767 151.231 112.87C151.547 110.974 143.33 107.181 143.33 107.181L135.903 104.021Z" fill="#FE5501"/>
<mask id="mask0_58_498" style="mask-type:luminance" maskUnits="userSpaceOnUse" x="0" y="238" width="236" height="12">
<path d="M0.0542603 238.319H235.958V249.907H0.0542603V238.319Z" fill="white"/>
</mask>
<g mask="url(#mask0_58_498)">
<path fill-rule="evenodd" clip-rule="evenodd" d="M118.006 250.001C182.972 250.001 235.958 247.395 235.958 244.198C235.958 241.005 182.972 238.398 118.006 238.398C53.0406 238.398 0.0542603 241.005 0.0542603 244.198C0.0542603 247.395 53.0406 250.001 118.006 250.001Z" fill="#FE5501"/>
</g>
</svg>
