<svg width="200" height="200" viewBox="0 0 200 200" fill="none" xmlns="http://www.w3.org/2000/svg">
<g clip-path="url(#clip0_58_118)">
<path d="M220 -20H-20V220H220V-20Z" fill="white"/>
<path d="M220 -20H-20V220H220V-20Z" fill="white"/>
<path d="M83.9487 39.239C76.1294 39.239 70.0058 30.6192 70.0058 19.6152C70.0058 8.61593 76.1304 0 83.9487 0C91.7718 0 97.8993 8.6169 97.8993 19.6152C97.8993 30.6202 91.7718 39.239 83.9487 39.239ZM48.9863 48.6246C45.2556 40.4485 46.9782 31.8856 52.9032 29.1204C54.1107 28.56 55.409 28.2764 56.767 28.2764C61.9811 28.2764 67.2357 32.3949 70.1524 38.7683C73.885 46.9309 72.1682 55.4929 66.2442 58.261C65.0318 58.8233 63.7336 59.1059 62.3756 59.1059C57.1595 59.1059 51.9039 54.9923 48.9863 48.6246ZM114.407 39.239C106.585 39.239 100.458 30.6192 100.457 19.6152C100.457 8.61593 106.585 0 114.407 0C122.226 0 128.352 8.6169 128.352 19.6152C128.352 30.6202 122.226 39.239 114.407 39.239ZM128.214 38.7654C131.131 32.3949 136.382 28.2764 141.59 28.2764C142.951 28.2764 144.253 28.561 145.457 29.1233C151.383 31.8895 153.104 40.4552 149.372 48.6217C146.455 54.9923 141.202 59.1059 135.988 59.1059C134.631 59.1059 133.332 58.8233 132.13 58.2658C126.186 55.488 124.471 46.9252 128.214 38.7654ZM68.1732 70.7533C68.7568 69.7782 76.4198 54.0953 83.3816 47.7595C89.2361 42.4431 98.179 42.2897 99.1783 42.2897C100.182 42.2897 109.123 42.4431 114.976 47.7575C121.94 54.0953 129.603 69.7782 130.186 70.7533C134.309 77.3331 136.836 81.6223 136.836 86.5509C136.836 95.5353 130.367 101.342 120.358 101.342H120.135C116.459 101.342 113.83 101.132 108.309 98.234C108.269 98.2137 108.229 98.1906 108.19 98.1694C108.161 98.153 103.699 92.6698 99.4445 92.9417C99.267 92.9533 99.0895 92.9533 98.9159 92.9417C94.6644 92.6717 90.1997 98.153 90.1572 98.1761C90.1264 98.1935 90.082 98.2176 90.0511 98.234C84.5293 101.132 81.9001 101.342 78.2243 101.342H78.0015C67.9919 101.342 61.5239 95.5353 61.5239 86.5509C61.5239 81.6223 64.05 77.3331 68.1732 70.7533ZM122.551 199.72C121.409 199.932 120.247 200.02 119.087 199.985C110.109 199.709 103.056 192.208 103.331 183.23L104.278 152.456C104.516 144.732 107.68 137.387 113.132 131.911L114.819 130.216C119.345 125.667 123.574 120.832 127.477 115.74L141.643 97.2579C144.362 93.7085 149.389 92.9176 153.068 95.4601C153.077 95.4659 153.085 95.4716 153.094 95.4774C156.699 97.989 157.584 102.947 155.073 106.55L141.022 126.717L146.773 122.76C157.902 115.104 164.472 102.396 164.287 88.8889L164.117 76.5519C164.047 71.414 168.132 67.1798 173.269 67.0669C178.436 66.9522 182.757 70.9693 183.019 76.1314L184.037 96.1487C184.919 113.475 179.159 130.486 167.933 143.713L161.051 151.822C154.08 160.036 149.077 169.733 146.424 180.174C143.965 189.847 136.105 197.207 126.291 199.026L122.551 199.72ZM77.2965 199.72L73.5561 199.026C63.7423 197.207 55.8835 189.847 53.424 180.174C50.7706 169.733 45.7677 160.036 38.7973 151.822L31.9145 143.713C20.6887 130.486 14.9286 113.475 15.8102 96.1487L16.8287 76.1314C17.091 70.9693 21.412 66.9522 26.5789 67.0669C31.7159 67.1798 35.8005 71.414 35.7301 76.5519L35.5604 88.8889C35.3752 102.396 41.9464 115.104 53.0748 122.76L58.8262 126.717L44.7753 106.55C42.2637 102.947 43.1501 97.989 46.7535 95.4774C46.7622 95.4716 46.7708 95.4659 46.7795 95.4601C50.4581 92.9176 55.4851 93.7085 58.206 97.2579L72.3708 115.74C76.2741 120.832 80.5025 125.667 85.0289 130.216L86.7159 131.911C92.1673 137.387 95.3328 144.732 95.57 152.456L96.5162 183.23C96.7921 192.208 89.7386 199.709 80.761 199.985C79.6007 200.02 78.4394 199.932 77.2965 199.72Z" fill="#FE5501"/>
</g>
<defs>
<clipPath id="clip0_58_118">
<rect width="200" height="200" fill="white"/>
</clipPath>
</defs>
</svg>
