<svg width="50" height="38" viewBox="0 0 50 38" fill="none" xmlns="http://www.w3.org/2000/svg">
<path fill-rule="evenodd" clip-rule="evenodd" d="M28.8732 -1.84696e-06L28.8732 17.2075L34.1421 17.2075C38.1331 17.2075 41.8393 19.8378 42.1553 23.8883C42.271 25.3709 42.2257 26.8364 41.8511 27.9679C40.6439 32.832 36.4185 33.3396 36.4185 33.3396L36.4185 38C36.4185 38 50 36.176 50 21.584L50 0L28.8732 -1.84696e-06ZM3.32207e-06 -4.37114e-06L1.81773e-06 17.2075L5.26888 17.2075C9.25985 17.2075 12.966 19.8378 13.282 23.8883C13.3977 25.3709 13.3524 26.8364 12.9779 27.9679C11.7706 32.832 7.54528 33.3396 7.54528 33.3396L7.54528 38C7.54528 38 21.1268 36.176 21.1268 21.584L21.1268 -2.52418e-06L3.32207e-06 -4.37114e-06Z" fill="#0D5C91"/>
</svg>
