<svg width="140" height="18" viewBox="0 0 140 18" fill="none" xmlns="http://www.w3.org/2000/svg">
<path d="M2.64234 10.0191C2.57628 10.0191 1.12299 10.0191 0.462409 10.0191C0.110098 10.0191 0 9.88579 0 9.55257C0 8.66395 0 7.75313 0 6.86452C0 6.50907 0.132117 6.398 0.462409 6.398H2.64234C2.64234 6.33135 2.64234 5.04287 2.64234 4.44305C2.64234 3.55444 2.79647 2.71026 3.23686 1.93273C3.69927 1.13298 4.35986 0.599812 5.1966 0.288798C5.74709 0.0888609 6.29757 0 6.8921 0H9.05001C9.35828 0 9.4904 0.133292 9.4904 0.444305V2.97685C9.4904 3.28786 9.35828 3.42115 9.05001 3.42115C8.45548 3.42115 7.86096 3.42115 7.26643 3.44337C6.6719 3.44337 6.36363 3.73217 6.36363 4.35419C6.34161 5.02065 6.36363 5.66489 6.36363 6.35357H8.91789C9.2702 6.35357 9.40232 6.48686 9.40232 6.8423V9.53035C9.40232 9.88579 9.29222 9.99687 8.91789 9.99687C8.12519 9.99687 6.42969 9.99687 6.36363 9.99687V17.239C6.36363 17.6167 6.25353 17.75 5.85718 17.75C4.93236 17.75 4.02957 17.75 3.10475 17.75C2.77446 17.75 2.64234 17.6167 2.64234 17.2835C2.64234 14.9509 2.64234 10.0857 2.64234 10.0191Z" fill="#0D5C91"/>
<path d="M53.7816 2.91067C53.6671 2.72268 53.4575 2.61613 53.2393 2.63522L52.2732 2.72012L53.1966 0.842013C53.3066 0.618325 53.2632 0.348824 53.0886 0.17179C52.914 -0.0052431 52.6472 -0.05037 52.4249 0.0594311L49.9808 1.26705C48.4708 0.462786 46.5843 0.701516 45.2861 1.89455C44.2027 2.89025 43.6333 4.42147 43.7394 5.94846C40.9078 5.66212 38.5108 4.0269 37.0935 1.38472C36.9995 1.20944 36.8232 1.09479 36.6261 1.0807C36.4287 1.06685 36.2385 1.15511 36.121 1.31535C35.2419 2.51346 35.1802 4.15621 35.8694 5.50769C35.6794 5.45928 35.4772 5.39376 35.2531 5.31821C35.061 5.25342 34.8493 5.29492 34.6952 5.42747C34.541 5.56003 34.4669 5.76432 34.4999 5.96594C34.7726 7.63388 35.7367 8.91576 37.2596 9.67452C37.0613 9.74419 36.8589 9.80078 36.6532 9.84403C36.4488 9.88702 36.2832 10.0379 36.2202 10.2388C36.1572 10.4396 36.2065 10.6591 36.3492 10.8129C37.4459 11.9956 39.0301 12.5777 40.1553 12.857C38.8759 13.8678 37.4948 14.037 35.4879 13.9675C35.2556 13.9604 35.0415 14.0924 34.9439 14.3048C34.8462 14.5173 34.8841 14.7682 35.0401 14.9417C35.8767 15.8721 38.9248 16.9211 42.1289 16.9998C42.2557 17.0029 42.3849 17.0046 42.5169 17.0046C44.7667 17.0045 47.7399 16.518 49.8741 14.3648C51.4895 12.7351 52.4999 10.859 52.8771 8.78874C53.1818 7.11664 52.9892 5.77765 52.8967 5.13411C52.8899 5.08681 52.8826 5.0366 52.8767 4.9927L53.7804 3.52321C53.8957 3.33575 53.8962 3.09866 53.7816 2.91067Z" fill="#627785"/>
<path fill-rule="evenodd" clip-rule="evenodd" d="M92.328 0H83.3541C80.8414 0 78.8672 1.89695 78.8672 4.31126V12.9338C78.8672 15.3481 80.8414 17.245 83.3541 17.245H92.328C94.8407 17.245 96.8149 15.3481 96.8149 12.9338V4.31126C96.8149 1.89695 94.8407 0 92.328 0ZM95.0201 12.9338C95.0201 14.3996 93.8535 15.5205 92.328 15.5205H83.3541C81.8286 15.5205 80.662 14.3996 80.662 12.9338V4.31126C80.662 2.84543 81.8286 1.7245 83.3541 1.7245H92.328C93.8535 1.7245 95.0201 2.84543 95.0201 4.31126V12.9338ZM87.841 4.31126C85.3284 4.31126 83.3541 6.20821 83.3541 8.62252C83.3541 11.0368 85.3284 12.9338 87.841 12.9338C90.3537 12.9338 92.328 11.0368 92.328 8.62252C92.328 6.20821 90.3537 4.31126 87.841 4.31126ZM87.841 11.2093C86.3155 11.2093 85.1489 10.0883 85.1489 8.62252C85.1489 7.15669 86.3155 6.03576 87.841 6.03576C89.3666 6.03576 90.5332 7.15669 90.5332 8.62252C90.5332 10.0883 89.3666 11.2093 87.841 11.2093ZM93.2254 4.31126C93.2254 4.78747 92.8236 5.17351 92.328 5.17351C91.8324 5.17351 91.4306 4.78747 91.4306 4.31126C91.4306 3.83505 91.8324 3.44901 92.328 3.44901C92.8236 3.44901 93.2254 3.83505 93.2254 4.31126Z" fill="#627785"/>
<path d="M136.712 0H124.165C123.541 0 122.943 0.250057 122.502 0.69516C122.06 1.14026 121.812 1.74395 121.812 2.37343V15.0317C121.812 15.6612 122.06 16.2649 122.502 16.71C122.943 17.1551 123.541 17.4051 124.165 17.4051H136.712C137.336 17.4051 137.934 17.1551 138.375 16.71C138.816 16.2649 139.064 15.6612 139.064 15.0317V2.37343C139.064 1.74395 138.816 1.14026 138.375 0.69516C137.934 0.250057 137.336 0 136.712 0V0ZM127.694 13.7738C127.694 13.822 127.685 13.8699 127.666 13.9145C127.648 13.9591 127.621 13.9997 127.588 14.0339C127.554 14.068 127.514 14.0951 127.47 14.1136C127.425 14.1321 127.378 14.1417 127.33 14.1417H125.78C125.732 14.1418 125.685 14.1324 125.641 14.1139C125.596 14.0955 125.556 14.0684 125.522 14.0342C125.488 14 125.462 13.9594 125.443 13.9147C125.425 13.87 125.416 13.8221 125.416 13.7738V7.21917C125.416 7.1216 125.454 7.02803 125.523 6.95904C125.591 6.89005 125.684 6.85129 125.78 6.85129H127.33C127.427 6.85155 127.519 6.89042 127.587 6.95939C127.655 7.02835 127.694 7.12177 127.694 7.21917V13.7738ZM126.555 6.23024C126.264 6.23024 125.98 6.14324 125.738 5.98025C125.496 5.81725 125.308 5.58557 125.196 5.31452C125.085 5.04347 125.056 4.74521 125.113 4.45746C125.169 4.16971 125.309 3.90539 125.515 3.69794C125.721 3.49048 125.983 3.3492 126.268 3.29196C126.553 3.23473 126.849 3.2641 127.117 3.37638C127.386 3.48865 127.616 3.67878 127.777 3.92272C127.939 4.16667 128.025 4.45346 128.025 4.74685C128.025 5.14027 127.87 5.51758 127.594 5.79577C127.319 6.07396 126.945 6.23024 126.555 6.23024ZM135.794 13.7995C135.794 13.8439 135.786 13.888 135.769 13.9291C135.752 13.9702 135.728 14.0075 135.696 14.0389C135.665 14.0704 135.628 14.0953 135.587 14.1122C135.547 14.1292 135.503 14.1378 135.459 14.1377H133.793C133.749 14.1378 133.705 14.1292 133.664 14.1122C133.623 14.0953 133.586 14.0704 133.555 14.0389C133.524 14.0075 133.499 13.9702 133.483 13.9291C133.466 13.888 133.457 13.8439 133.457 13.7995V10.7289C133.457 10.27 133.591 8.71937 132.268 8.71937C131.244 8.71937 131.035 9.78049 130.994 10.2572V13.8034C130.994 13.8923 130.96 13.9776 130.898 14.0409C130.836 14.1042 130.752 14.1404 130.664 14.1417H129.054C129.01 14.1417 128.967 14.1329 128.926 14.1159C128.886 14.0989 128.849 14.074 128.818 14.0425C128.787 14.0111 128.762 13.9738 128.745 13.9328C128.728 13.8918 128.72 13.8478 128.72 13.8034V7.19049C128.72 7.14612 128.728 7.10216 128.745 7.06114C128.762 7.02011 128.787 6.98282 128.818 6.9514C128.849 6.91998 128.886 6.89505 128.926 6.87804C128.967 6.86103 129.01 6.85228 129.054 6.85228H130.664C130.753 6.85228 130.838 6.88791 130.901 6.95134C130.964 7.01477 130.999 7.10079 130.999 7.19049V7.76209C131.379 7.18555 131.943 6.74251 133.146 6.74251C135.81 6.74251 135.792 9.2524 135.792 10.631L135.794 13.7995Z" fill="#627785"/>
</svg>
