<svg width="80" height="14" viewBox="0 0 80 14" fill="none" xmlns="http://www.w3.org/2000/svg">
<path d="M7.22569 0L9.36924 4.5606L14.4514 5.15194L10.694 8.56189L11.6914 13.488L7.22569 11.0348L2.75997 13.488L3.75736 8.56189L0 5.15194L5.08215 4.5606L7.22569 0Z" fill="#FFC31B"/>
<path d="M39.9825 0L42.1261 4.5606L47.2082 5.15194L43.4509 8.56189L44.4483 13.488L39.9825 11.0348L35.5168 13.488L36.5142 8.56189L32.7568 5.15194L37.839 4.5606L39.9825 0Z" fill="#FFC31B"/>
<path d="M23.6036 0L25.7472 4.5606L30.8293 5.15194L27.072 8.56189L28.0693 13.488L23.6036 11.0348L19.1379 13.488L20.1353 8.56189L16.3779 5.15194L21.4601 4.5606L23.6036 0Z" fill="#FFC31B"/>
<path d="M56.3604 0L58.5039 4.5606L63.5861 5.15194L59.8287 8.56189L60.8261 13.488L56.3604 11.0348L51.8947 13.488L52.8921 8.56189L49.1347 5.15194L54.2169 4.5606L56.3604 0Z" fill="#FFC31B"/>
<path d="M72.7384 0L74.8819 4.5606L79.9641 5.15194L76.2067 8.56189L77.2041 13.488L72.7384 11.0348L68.2727 13.488L69.2701 8.56189L65.5127 5.15194L70.5948 4.5606L72.7384 0Z" fill="#BCCCC8"/>
<path d="M72.7384 0L72.7384 5.78056V7.70741L72.7384 11.0348L68.2727 13.488L69.2701 8.56189L65.5127 5.15194L70.5948 4.5606L72.7384 0Z" fill="#FFC31B"/>
</svg>
