<svg width="20" height="17" viewBox="0 0 20 17" fill="none" xmlns="http://www.w3.org/2000/svg">
<path d="M19.7816 2.91067C19.6671 2.72268 19.4575 2.61613 19.2393 2.63522L18.2732 2.72012L19.1966 0.842013C19.3066 0.618325 19.2632 0.348824 19.0886 0.17179C18.914 -0.0052431 18.6472 -0.05037 18.4249 0.0594311L15.9808 1.26705C14.4708 0.462786 12.5843 0.701516 11.2861 1.89455C10.2027 2.89025 9.63325 4.42147 9.73943 5.94846C6.90776 5.66212 4.51085 4.0269 3.09351 1.38472C2.99948 1.20944 2.82317 1.09479 2.62613 1.0807C2.42871 1.06685 2.23851 1.15511 2.12097 1.31535C1.24191 2.51346 1.18022 4.15621 1.86936 5.50769C1.6794 5.45928 1.47724 5.39376 1.25307 5.31821C1.06102 5.25342 0.849295 5.29492 0.695165 5.42747C0.541034 5.56003 0.46694 5.76432 0.4999 5.96594C0.772589 7.63388 1.73665 8.91576 3.25956 9.67452C3.06127 9.74419 2.85893 9.80078 2.65318 9.84403C2.44876 9.88702 2.28324 10.0379 2.22023 10.2388C2.15723 10.4396 2.2065 10.6591 2.34916 10.8129C3.44586 11.9956 5.03008 12.5777 6.15535 12.857C4.87591 13.8678 3.49479 14.037 1.48788 13.9675C1.25557 13.9604 1.04153 14.0924 0.943862 14.3048C0.84623 14.5173 0.88411 14.7682 1.04013 14.9417C1.87674 15.8721 4.92476 16.9211 8.12892 16.9998C8.25565 17.0029 8.38492 17.0046 8.51691 17.0046C10.7667 17.0045 13.7399 16.518 15.8741 14.3648C17.4895 12.7351 18.4999 10.859 18.8771 8.78874C19.1818 7.11664 18.9892 5.77765 18.8967 5.13411C18.8899 5.08681 18.8826 5.0366 18.8767 4.9927L19.7804 3.52321C19.8957 3.33575 19.8962 3.09866 19.7816 2.91067Z" fill="#627785"/>
</svg>
